<svg width="37" height="45" viewBox="0 0 37 45" fill="none" xmlns="http://www.w3.org/2000/svg">
<path d="M33.1249 21.7829C34.4242 22.5589 34.4242 24.4411 33.1249 25.2171L3.02548 43.1931C1.69236 43.9893 0 43.0288 0 41.476V32.2347C0 31.4508 0.457989 30.7391 1.17149 30.4144L11.1731 25.8622C12.7063 25.1644 12.7428 22.9997 11.234 22.2505L1.11056 17.224C0.430252 16.8862 0 16.1922 0 15.4327V5.52397C0 3.97121 1.69237 3.01072 3.02548 3.80688L33.1249 21.7829Z" fill="#DBDBDB"/>
<path d="M33.948 18.762C35.295 19.5291 35.2951 21.4709 33.948 22.238L3.98968 39.2975C2.65638 40.0568 1 39.0939 1 37.5596V28.9134C1 28.1167 1.4729 27.3959 2.20379 27.0788L11.9549 22.847C13.5315 22.1628 13.5678 19.9401 12.0145 19.2047L2.14421 14.5318C1.44551 14.2011 1 13.4972 1 12.7242V3.44042C1 1.90611 2.65638 0.943216 3.98968 1.70245L33.948 18.762Z" fill="#E66A4A"/>
</svg>
